<svg class="icon" viewBox="0 0 1024 1024" version="1.1" xmlns="http://www.w3.org/2000/svg"
     width="16" height="16">
    <path d="M701.264 133.994c179.38 77.778 287.858 260.647 251.859 450.905C911.395 805.13 691.57 954.42 455.979 926.572l-6.667-0.796-5.566-0.753-0.247-0.035 0.134 0.021 0.113 0.014 0.234 0.036-0.347-0.05-0.176-0.028-0.024 0.005-0.795-0.11 0.698 0.09 0.12 0.015 0.043 0.007-0.163-0.021-4.093-0.581-5.105-0.798c3.48 0.569 6.956 1.07 10.426 1.503l0.042 0.005c135.223 16.867 261.89-68.512 285.722-194.865 24.582-129.54-68.296-253.667-207.323-276.62-56.261-9.16-97.232-51.863-104.466-101.956 39.702-8.513 81.701-9.842 124.42-2.895 170.226 28.027 283.916 179.362 253.916 338.052-29.088 153.972-182.765 258.22-347.256 238.951l1.01 0.14c175.283 20.572 338.69-90.556 369.694-254.388 32.022-168.94-89.073-330.151-270.407-359.914a359.874 359.874 0 0 0-130.42 2.622c12.573-63.723 77.241-106.349 145.655-96.301l2.387 0.372v0.136c209.003 34.292 348.475 219.953 311.584 414.672-34.824 184.213-215.014 310.565-411.31 294.597C674.49 945.422 864.64 812.635 901.215 618.68c32.89-173.219-67.388-339.629-232.171-408.231l-5.013-2.049 37.233-74.407zM561.32 97.599c4.45 0.42 8.906 0.91 13.368 1.474l3.947 0.53-1.528-0.2c-2.85-0.364-5.697-0.692-8.54-0.987l3.823 0.466 1.345 0.181a340.172 340.172 0 0 1 16.1 2.253c-12.925-2.044-25.645-3.27-38.296-3.61-124.284-2.86-235.642 79.277-257.893 196.899-12.72 67.018 6.034 132.64 46.285 183.515 37.645 47.403 93.872 82.036 161.037 92.933 56.193 9.33 97.301 52.102 104.467 102.161-39.634 8.412-81.702 9.91-124.284 2.86-170.294-28.06-284.052-179.394-253.984-338.085C256.186 184.516 409.008 80.306 573.169 99a470.935 470.935 0 0 0-7.953-0.92C393.081 81.91 234.182 192.02 203.595 353.334c-31.886 169.009 89.21 330.049 270.475 360.05 44.64 7.22 88.73 5.926 130.421-2.758-12.574 63.554-77.309 106.245-145.724 96.199l-2.388-0.372-6.245-1.076c-205.393-36.996-341.792-220.792-305.27-413.699 34.12-180.428 207.857-305.31 399.479-295.31-202.055-11.783-385.637 119.555-421.644 309.834-32.822 173.118 67.39 339.526 232.305 408.261l5.017 2.053-37.234 74.476C143.27 813.145 34.929 630.242 70.86 440.018 112.126 221.87 328.264 73.298 561.319 97.599z"
          fill="#dbdbdb"></path>
</svg>